<svg width="253" height="192" viewBox="0 0 253 192" fill="none" xmlns="http://www.w3.org/2000/svg">
<circle cx="237" cy="81" r="12" fill="#3A61F0"/>
<circle cx="9" cy="67" r="9" fill="#181C33"/>
<circle cx="19.5" cy="108.5" r="4.5" fill="#F5A647"/>
<path d="M48.4868 98.2806C44.8725 67.1603 43.0654 51.6001 44.7294 45.0147C46.5986 37.6168 47.9734 35.0368 53.0711 29.3592C57.6091 24.3052 63.1504 21.4482 74.233 15.7342C78.7222 13.4196 82.4536 11.844 84.7708 11.5193C100.772 9.27745 108.773 8.15651 112.589 8.41179C126.782 9.36124 134.417 14.0088 141.779 26.1797C143.758 29.4521 145.34 33.9533 148.504 42.9557L160.729 77.7359C171.337 107.917 176.641 123.008 173.525 134.215C170.782 144.079 164.25 152.201 155.203 156.995C144.925 162.442 128.839 160.472 96.6653 156.532C87.5861 155.42 80.6283 154.641 77.6015 154.456C75.0967 154.303 71.538 153.95 67.3739 153.472C48.8303 151.342 44.7735 125.009 48.3389 106.687C48.8288 104.17 48.8405 101.327 48.4868 98.2806Z" fill="#F5A647"/>
<path d="M81.6536 57.599C78.92 38.4007 77.5532 28.8015 80.5594 21.827C83.2196 15.6552 87.9329 10.8195 94.0344 8.00184C100.93 4.81773 110.697 5.9538 130.233 8.22593C146.9 10.1644 162.253 11.7403 168.119 11.7403C178.224 11.7403 183.277 11.7403 186.959 12.8076C197.936 15.989 202.194 20.2475 205.376 31.2237C206.443 34.9062 206.443 45.9191 206.443 67.945C206.443 77.0673 207.348 92.1121 212.658 111.19C213.958 115.861 214.608 118.197 214.848 119.686C217.063 133.425 207.696 147.27 194.119 150.325C192.648 150.656 197.718 150.098 195.69 150.321C192.024 150.725 188.162 150.965 184.162 150.965C170.801 150.965 145.974 148.285 125.69 145.781C114.454 144.393 108.835 143.7 104.17 141.061C100.117 138.768 96.5815 135.297 94.2142 131.288C91.4888 126.673 90.6725 120.94 89.04 109.475L81.6536 57.599Z" fill="#181C33"/>
<g filter="url(#filter0_d)">
<circle cx="127" cy="84" r="72" fill="#3A61F0"/>
</g>
<path fill-rule="evenodd" clip-rule="evenodd" d="M128.399 50.2698L156.641 61.7758C158.074 62.3504 159 63.7156 159 65.2556V70.1126C159 72.181 157.311 73.8637 155.235 73.8637H98.7647C96.6888 73.8637 95 72.181 95 70.1126V65.2556C95 63.7156 95.9257 62.3504 97.3592 61.7758L125.588 50.2749C126.509 49.9056 127.504 49.9129 128.398 50.2696L128.399 50.2698ZM127 65.8613C128.04 65.8613 128.882 65.0216 128.882 63.9858V59.9846C128.882 58.9488 128.04 58.1091 127 58.1091C125.96 58.1091 125.118 58.9488 125.118 59.9846V63.9858C125.118 65.0216 125.96 65.8613 127 65.8613ZM132.898 77.6146V98.3706H121.102V77.6146H132.898ZM141.18 77.6146H152.976V98.3706H141.18V77.6146ZM155.235 102.122C157.311 102.122 159 103.804 159 105.873V110.249C159 112.317 157.311 114 155.235 114H98.7647C96.6888 114 95 112.317 95 110.249V105.873C95 103.804 96.6888 102.122 98.7647 102.122H155.235ZM112.82 77.6146H101.024V98.3706H112.82V77.6146Z" fill="white"/>
<defs>
<filter id="filter0_d" x="31" y="0" width="192" height="192" filterUnits="userSpaceOnUse" color-interpolation-filters="sRGB">
<feFlood flood-opacity="0" result="BackgroundImageFix"/>
<feColorMatrix in="SourceAlpha" type="matrix" values="0 0 0 0 0 0 0 0 0 0 0 0 0 0 0 0 0 0 127 0"/>
<feOffset dy="12"/>
<feGaussianBlur stdDeviation="12"/>
<feColorMatrix type="matrix" values="0 0 0 0 0 0 0 0 0 0 0 0 0 0 0 0 0 0 0.08 0"/>
<feBlend mode="normal" in2="BackgroundImageFix" result="effect1_dropShadow"/>
<feBlend mode="normal" in="SourceGraphic" in2="effect1_dropShadow" result="shape"/>
</filter>
</defs>
</svg>
