<svg width="253" height="216" viewBox="0 0 253 216" fill="none" xmlns="http://www.w3.org/2000/svg">
<circle cx="237" cy="97" r="12" fill="#3A61F0"/>
<circle cx="9" cy="67" r="9" fill="#181C33"/>
<circle cx="54.5" cy="184.5" r="4.5" fill="#F5A647"/>
<path d="M48.5021 47.8634C50.0122 31.2318 69.8835 23.5269 85.9366 28.13C90.3122 29.3847 100.881 28.6782 113.49 27.0832C137.282 24.0736 149.178 22.5688 155.92 26.1725C162.045 29.4465 166.044 34.5077 167.814 41.2237C169.761 48.6158 165.773 59.2422 157.795 80.4949L131.24 151.24C124.525 169.127 121.168 178.071 115.849 182.228C110.775 186.192 105.868 187.698 99.4438 187.261C92.7086 186.804 83.814 180.504 66.0248 167.904C60.5993 164.061 55.7437 161.196 52.2365 160.19C45.4658 158.249 39.1036 150.477 34.0594 142.273C30.7161 136.834 29.0445 134.115 28.1459 130.528C27.2465 126.937 27.144 124.472 27.7422 120.818C28.3398 117.169 31.3119 111.29 37.2561 99.5325C39.4099 95.2723 41.4162 90.445 42.9352 85.1479C45.3969 76.5627 47.2132 62.0583 48.5021 47.8634Z" fill="#F5A647"/>
<path d="M101.506 58.0746C106.533 51.9432 109.047 48.8775 112.233 46.8308C115.215 44.9149 118.027 43.849 121.53 43.3061C125.272 42.7263 130.156 43.5107 139.925 45.0795C144.793 45.8614 149.66 46.4172 153.655 46.4172C155.431 46.4172 158.112 46.1751 161.428 45.7548C174.095 44.1494 180.428 43.3467 182.59 43.4631C198.761 44.3342 202.014 47.2011 204.911 63.1344C205.299 65.2639 205.299 76.4179 205.299 98.7258C205.299 111.608 206.821 124.75 208.359 134.743C209.423 141.654 209.955 145.11 209.431 148.682C209.033 151.387 207.637 155.275 206.222 157.614C204.354 160.703 202.84 162.054 199.811 164.755C194.58 169.42 188.286 173.565 182.435 173.565C176.331 173.565 163.223 178.232 150.769 183.309C139.748 187.802 134.238 190.049 129.311 189.961C124.893 189.882 120.786 188.666 117.036 186.327C112.856 183.719 109.785 179.307 103.644 170.483C88.4547 148.661 69.3594 119.262 69.3594 109.385C69.3594 99.2107 87.6329 74.9936 101.506 58.0746Z" fill="#181C33"/>
<g filter="url(#filter0_d)">
<circle cx="127" cy="108" r="72" fill="#3A61F0"/>
</g>
<path fill-rule="evenodd" clip-rule="evenodd" d="M159 97.1856V92.6587C159 89.5385 156.477 87 153.375 87H100.625C97.5234 87 95 89.5385 95 92.6587V97.1856H159ZM138.875 110.892H147.125V115.168H138.875V110.892ZM95 100.958V123.341C95 126.462 97.5234 129 100.625 129H153.375C156.477 129 159 126.462 159 123.341V100.958H95ZM123 118.94H107C105.965 118.94 105.125 118.096 105.125 117.054C105.125 116.012 105.965 115.168 107 115.168H123C124.035 115.168 124.875 116.012 124.875 117.054C124.875 118.096 124.035 118.94 123 118.94ZM107 110.892H123C124.035 110.892 124.875 110.048 124.875 109.006C124.875 107.964 124.035 107.12 123 107.12H107C105.965 107.12 105.125 107.964 105.125 109.006C105.125 110.048 105.965 110.892 107 110.892ZM150.875 117.054C150.875 118.096 150.035 118.94 149 118.94H137C135.965 118.94 135.125 118.096 135.125 117.054V109.006C135.125 107.964 135.965 107.12 137 107.12H149C150.035 107.12 150.875 107.964 150.875 109.006V117.054Z" fill="white"/>
<defs>
<filter id="filter0_d" x="31" y="24" width="192" height="192" filterUnits="userSpaceOnUse" color-interpolation-filters="sRGB">
<feFlood flood-opacity="0" result="BackgroundImageFix"/>
<feColorMatrix in="SourceAlpha" type="matrix" values="0 0 0 0 0 0 0 0 0 0 0 0 0 0 0 0 0 0 127 0"/>
<feOffset dy="12"/>
<feGaussianBlur stdDeviation="12"/>
<feColorMatrix type="matrix" values="0 0 0 0 0 0 0 0 0 0 0 0 0 0 0 0 0 0 0.08 0"/>
<feBlend mode="normal" in2="BackgroundImageFix" result="effect1_dropShadow"/>
<feBlend mode="normal" in="SourceGraphic" in2="effect1_dropShadow" result="shape"/>
</filter>
</defs>
</svg>
