<svg width="500" height="497" viewBox="0 0 500 497" fill="none" xmlns="http://www.w3.org/2000/svg">
<circle cx="440" cy="400" r="16" fill="#3A61F0"/>
<circle cx="96" cy="65" r="8" fill="#F5A647"/>
<circle cx="471" cy="362" r="8" fill="#F5A647"/>
<circle cx="424.004" cy="18" r="4" fill="#3A61F0"/>
<circle cx="80" cy="50" r="4" fill="#3A61F0"/>
<rect x="49.6569" y="14" width="33" height="8" rx="4" transform="rotate(45 49.6569 14)" fill="#3A61F0"/>
<rect x="393.661" y="9" width="33" height="8" rx="4" transform="rotate(45 393.661 9)" fill="#F5A647"/>
<mask id="mask0" mask-type="alpha" maskUnits="userSpaceOnUse" x="24" y="32" width="475" height="353">
<path d="M34.3067 182.225C80.4329 119.593 103.496 88.2769 107.468 84.0492C118.157 72.6733 106.541 83.2137 118.898 73.6772C123.491 70.133 140.228 60.1504 173.702 40.1852C181.67 35.4327 190.9 32.5703 201.574 32.5703C246.693 32.5703 364.066 49.3674 426.675 58.8408C433.731 59.9084 437.259 60.4422 450.896 67.2278C456.914 70.2222 477.968 86.8811 482.266 92.0492C492.006 103.761 488.893 96.0173 490.138 99.1148C496.598 115.187 501.065 137.199 497.648 165.648C494.321 193.359 425.109 203.197 409.352 250.168C393.451 297.566 385.5 321.266 384.565 323.634C363.363 377.312 357.072 381.838 299.438 384.866C296.894 385 295.214 385 291.852 385H177.063C133.399 385 111.568 385 92.527 376.399C76.7232 369.259 60.8783 355.718 51.3638 341.219C39.9007 323.751 36.8331 304.303 30.6979 265.407C27.2817 243.75 24.9062 223.426 24.9062 208.785C24.9063 198.972 28.4896 190.124 34.3067 182.225Z" fill="white"/>
</mask>
<g mask="url(#mask0)">
<path fill-rule="evenodd" clip-rule="evenodd" d="M-153.469 268.872C-155.031 270.434 -155.031 272.967 -153.469 274.529C-151.907 276.091 -149.375 276.091 -147.813 274.529L304.029 -177.313C305.591 -178.875 305.591 -181.407 304.029 -182.969C302.467 -184.532 299.934 -184.532 298.372 -182.969L-153.469 268.872ZM-136.499 285.842C-138.061 287.404 -138.061 289.937 -136.499 291.499C-134.937 293.061 -132.404 293.061 -130.842 291.499L320.999 -160.342C322.561 -161.904 322.561 -164.437 320.999 -165.999C319.437 -167.561 316.905 -167.561 315.342 -165.999L-136.499 285.842ZM-119.528 308.47C-121.09 306.908 -121.09 304.375 -119.528 302.813L332.313 -149.028C333.875 -150.59 336.408 -150.59 337.97 -149.028C339.532 -147.466 339.532 -144.934 337.97 -143.371L-113.871 308.47C-115.434 310.032 -117.966 310.032 -119.528 308.47ZM-102.558 319.783C-104.12 321.346 -104.12 323.878 -102.558 325.44C-100.996 327.002 -98.463 327.002 -96.9009 325.44L354.94 -126.401C356.502 -127.963 356.502 -130.496 354.94 -132.058C353.378 -133.62 350.846 -133.62 349.284 -132.058L-102.558 319.783ZM-85.5871 342.411C-87.1492 340.849 -87.1492 338.316 -85.5871 336.754L366.254 -115.087C367.816 -116.649 370.349 -116.649 371.911 -115.087C373.473 -113.525 373.473 -110.992 371.911 -109.43L-79.9303 342.411C-81.4924 343.973 -84.025 343.973 -85.5871 342.411ZM-68.6166 353.725C-70.1787 355.287 -70.1787 357.819 -68.6166 359.381C-67.0545 360.944 -64.5218 360.944 -62.9597 359.381L388.881 -92.4598C390.444 -94.0219 390.444 -96.5545 388.881 -98.1166C387.319 -99.6787 384.787 -99.6788 383.225 -98.1166L-68.6166 353.725ZM-51.646 376.352C-53.2081 374.79 -53.2081 372.257 -51.646 370.695L400.195 -81.1461C401.757 -82.7082 404.29 -82.7082 405.852 -81.1461C407.414 -79.584 407.414 -77.0513 405.852 -75.4892L-45.9892 376.352C-47.5513 377.914 -50.0839 377.914 -51.646 376.352ZM-34.6755 387.666C-36.2376 389.228 -36.2376 391.76 -34.6755 393.323C-33.1134 394.885 -30.5807 394.885 -29.0186 393.323L422.823 -58.5187C424.385 -60.0808 424.385 -62.6134 422.823 -64.1755C421.261 -65.7376 418.728 -65.7376 417.166 -64.1755L-34.6755 387.666ZM-17.7049 410.293C-19.267 408.731 -19.267 406.198 -17.7049 404.636L434.136 -47.205C435.698 -48.7671 438.231 -48.7671 439.793 -47.205C441.355 -45.6429 441.355 -43.1102 439.793 -41.5481L-12.048 410.293C-13.6101 411.855 -16.1428 411.855 -17.7049 410.293ZM-0.734332 421.607C-2.29643 423.169 -2.29643 425.702 -0.734332 427.264C0.827764 428.826 3.36042 428.826 4.92252 427.264L456.764 -24.5775C458.326 -26.1397 458.326 -28.6723 456.764 -30.2344C455.202 -31.7965 452.669 -31.7965 451.107 -30.2344L-0.734332 421.607ZM16.2362 444.234C14.6741 442.672 14.6741 440.139 16.2362 438.577L468.077 -13.2638C469.64 -14.8259 472.172 -14.8259 473.734 -13.2638C475.296 -11.7017 475.296 -9.1691 473.734 -7.60698L21.8931 444.234C20.331 445.796 17.7983 445.796 16.2362 444.234ZM33.2068 455.548C31.6447 457.11 31.6447 459.643 33.2068 461.205C34.7689 462.767 37.3015 462.767 38.8636 461.205L490.705 9.36358C492.267 7.80147 492.267 5.26883 490.705 3.70673C489.143 2.14463 486.61 2.14461 485.048 3.70673L33.2068 455.548ZM50.1774 478.175C48.6153 476.613 48.6153 474.081 50.1774 472.519L502.019 20.6773C503.581 19.1152 506.113 19.1152 507.675 20.6773C509.238 22.2394 509.238 24.772 507.675 26.3341L55.8342 478.175C54.2721 479.737 51.7395 479.737 50.1774 478.175ZM67.1479 489.489C65.5858 491.051 65.5858 493.584 67.1479 495.146C68.71 496.708 71.2427 496.708 72.8048 495.146L524.646 43.3047C526.208 41.7426 526.208 39.21 524.646 37.6479C523.084 36.0858 520.551 36.0857 518.989 37.6479L67.1479 489.489ZM84.1185 512.116C82.5564 510.554 82.5564 508.022 84.1185 506.46L535.96 54.6184C537.522 53.0563 540.054 53.0563 541.617 54.6184C543.179 56.1805 543.179 58.7132 541.617 60.2753L89.7753 512.117C88.2132 513.679 85.6806 513.679 84.1185 512.116ZM101.089 523.43C99.5269 524.992 99.5269 527.525 101.089 529.087C102.651 530.649 105.184 530.649 106.746 529.087L558.587 77.2458C560.149 75.6837 560.149 73.1511 558.587 71.589C557.025 70.0269 554.492 70.0269 552.93 71.589L101.089 523.43ZM118.06 546.058C116.498 544.496 116.498 541.963 118.06 540.401L569.901 88.5595C571.463 86.9974 573.996 86.9974 575.558 88.5595C577.12 90.1216 577.12 92.6543 575.558 94.2164L123.716 546.058C122.154 547.62 119.622 547.62 118.06 546.058ZM135.03 557.371C133.468 558.933 133.468 561.466 135.03 563.028C136.592 564.59 139.125 564.59 140.687 563.028L592.528 111.187C594.09 109.625 594.09 107.092 592.528 105.53C590.966 103.968 588.434 103.968 586.871 105.53L135.03 557.371ZM152.001 579.999C150.439 578.437 150.439 575.904 152.001 574.342L603.842 122.501C605.404 120.939 607.937 120.939 609.499 122.501C611.061 124.063 611.061 126.595 609.499 128.158L157.658 579.999C156.095 581.561 153.563 581.561 152.001 579.999ZM168.971 591.312C167.409 592.875 167.409 595.407 168.971 596.969C170.533 598.531 173.066 598.531 174.628 596.969L626.469 145.128C628.031 143.566 628.031 141.033 626.469 139.471C624.907 137.909 622.375 137.909 620.813 139.471L168.971 591.312Z" fill="#373E68"/>
</g>
<path d="M62.3026 260.795C63.5492 201.564 64.1725 171.948 79.2106 143.479C91.4826 120.246 115.003 97.2162 138.488 85.4358C167.268 71 201.792 71 270.841 71H302.919C343.254 71 363.421 71 388.641 81.5692C412.977 91.7677 451.308 130.099 461.506 154.435C472.076 179.655 472.076 186.883 472.076 201.34C472.076 225.578 460.184 263.954 447.722 297.516C440.061 318.148 436.23 328.464 426.95 342.114C420.285 351.917 406.39 366.592 396.965 373.782C383.842 383.792 373.592 388.248 353.092 397.16C317.505 412.632 274.784 428.743 243.942 432.508C202.178 437.606 159.041 406.556 134.687 385.024C115.796 368.322 106.351 359.971 105.075 358.784C101.691 355.633 105.004 358.825 101.729 355.561C100.495 354.331 98.2545 351.98 93.7739 347.279C80.7743 333.641 66.0099 313.073 63.0654 287.98C62.2724 281.223 62.0697 271.862 62.3026 260.795Z" fill="#3A61F0"/>
<g filter="url(#filter0_ddi)">
<path fill-rule="evenodd" clip-rule="evenodd" d="M149 54.0462C149 35.7953 163.795 21 182.046 21H330.954C349.205 21 364 35.7953 364 54.0462V420.954C364 439.205 349.205 454 330.954 454H182.046C163.795 454 149 439.205 149 420.954V54.0462Z" fill="url(#paint0_linear)"/>
</g>
<path fill-rule="evenodd" clip-rule="evenodd" d="M162 253.5V138.5V421C162 431.408 170.605 440 181.051 440H330.949C341.395 440 350 431.408 350 421V249.5V53C350 42.5919 341.395 34 330.949 34H311.394C309.734 34 308.389 35.345 308.389 37.0042V37.5C308.556 44.2224 303.178 49.5923 296.357 49.5H215.141C208.222 49.5923 202.843 44.2224 203.109 37.5V37.0042C203.109 35.345 201.764 34 200.105 34H198.096H193.083H188.571C188.428 34 186.026 34 181.051 34C170.605 34 162 42.5919 162 53V141" fill="#FBFBFB"/>
<mask id="mask1" mask-type="alpha" maskUnits="userSpaceOnUse" x="162" y="34" width="188" height="406">
<path fill-rule="evenodd" clip-rule="evenodd" d="M162 253.5V138.5V421C162 431.408 170.605 440 181.051 440H330.949C341.395 440 350 431.408 350 421V249.5V53C350 42.5919 341.395 34 330.949 34H311.394C309.734 34 308.389 35.345 308.389 37.0042V37.5C308.556 44.2224 303.178 49.5923 296.357 49.5H215.141C208.222 49.5923 202.843 44.2224 203.109 37.5V37.0042C203.109 35.345 201.764 34 200.105 34H198.096H193.083H188.571C188.428 34 186.026 34 181.051 34C170.605 34 162 42.5919 162 53V141" fill="white"/>
</mask>
<g mask="url(#mask1)">
<path fill-rule="evenodd" clip-rule="evenodd" d="M162 253.5V138.5V421C162 431.408 170.605 440 181.051 440H330.949C341.395 440 350 431.408 350 421V249.5V53C350 42.5919 341.395 34 330.949 34H311.394C309.734 34 308.389 35.345 308.389 37.0042V37.5C308.556 44.2224 303.178 49.5923 296.357 49.5H215.141C208.222 49.5923 202.843 44.2224 203.109 37.5V37.0042C203.109 35.345 201.764 34 200.105 34H198.096H193.083H188.571C188.428 34 186.026 34 181.051 34C170.605 34 162 42.5919 162 53V141" fill="#F5A647"/>
</g>
<g filter="url(#filter1_bd)">
<rect x="24" y="237" width="170" height="112" rx="13" fill="#3A61F0" fill-opacity="0.24"/>
<rect x="24.5" y="237.5" width="169" height="111" rx="12.5" stroke="white" stroke-opacity="0.08"/>
</g>
<path d="M50 252.155C51.2376 251.44 52.7624 251.44 54 252.155L60.3923 255.845C61.6299 256.56 62.3923 257.88 62.3923 259.309V266.691C62.3923 268.12 61.6299 269.44 60.3923 270.155L54 273.845C52.7624 274.56 51.2376 274.56 50 273.845L43.6077 270.155C42.3701 269.44 41.6077 268.12 41.6077 266.691V259.309C41.6077 257.88 42.3701 256.56 43.6077 255.845L50 252.155Z" fill="#F5A647"/>
<rect x="40" y="302" width="28" height="8" rx="4" fill="#B1C2FF"/>
<rect x="40" y="323" width="44" height="8" rx="4" fill="white"/>
<circle cx="174" cy="328" r="5" fill="white"/>
<rect x="72" y="302" width="28" height="8" rx="4" fill="#B1C2FF"/>
<rect x="104" y="302" width="28" height="8" rx="4" fill="#B1C2FF"/>
<rect x="136" y="302" width="28" height="8" rx="4" fill="#B1C2FF"/>
<g filter="url(#filter2_d)">
<circle cx="364" cy="385" r="32" fill="white"/>
</g>
<path fill-rule="evenodd" clip-rule="evenodd" d="M364 373L376 382H352L364 373ZM359 394H355V383H359V394ZM366 394V383H362V394H366ZM369 383H373V394H369V383ZM375 397V395H353V397H375Z" fill="#3A61F0"/>
<defs>
<filter id="filter0_ddi" x="117" y="0" width="279" height="497" filterUnits="userSpaceOnUse" color-interpolation-filters="sRGB">
<feFlood flood-opacity="0" result="BackgroundImageFix"/>
<feColorMatrix in="SourceAlpha" type="matrix" values="0 0 0 0 0 0 0 0 0 0 0 0 0 0 0 0 0 0 127 0"/>
<feOffset dy="11"/>
<feGaussianBlur stdDeviation="16"/>
<feColorMatrix type="matrix" values="0 0 0 0 0 0 0 0 0 0 0 0 0 0 0 0 0 0 0.04 0"/>
<feBlend mode="normal" in2="BackgroundImageFix" result="effect1_dropShadow"/>
<feColorMatrix in="SourceAlpha" type="matrix" values="0 0 0 0 0 0 0 0 0 0 0 0 0 0 0 0 0 0 127 0"/>
<feOffset dy="6"/>
<feGaussianBlur stdDeviation="11"/>
<feColorMatrix type="matrix" values="0 0 0 0 0 0 0 0 0 0 0 0 0 0 0 0 0 0 0.01 0"/>
<feBlend mode="normal" in2="effect1_dropShadow" result="effect2_dropShadow"/>
<feBlend mode="normal" in="SourceGraphic" in2="effect2_dropShadow" result="shape"/>
<feColorMatrix in="SourceAlpha" type="matrix" values="0 0 0 0 0 0 0 0 0 0 0 0 0 0 0 0 0 0 127 0" result="hardAlpha"/>
<feOffset dy="-4"/>
<feGaussianBlur stdDeviation="5"/>
<feComposite in2="hardAlpha" operator="arithmetic" k2="-1" k3="1"/>
<feColorMatrix type="matrix" values="0 0 0 0 0 0 0 0 0 0 0 0 0 0 0 0 0 0 0.05 0"/>
<feBlend mode="normal" in2="shape" result="effect3_innerShadow"/>
</filter>
<filter id="filter1_bd" x="0" y="220.69" width="218" height="164.31" filterUnits="userSpaceOnUse" color-interpolation-filters="sRGB">
<feFlood flood-opacity="0" result="BackgroundImageFix"/>
<feGaussianBlur in="BackgroundImage" stdDeviation="8.15485"/>
<feComposite in2="SourceAlpha" operator="in" result="effect1_backgroundBlur"/>
<feColorMatrix in="SourceAlpha" type="matrix" values="0 0 0 0 0 0 0 0 0 0 0 0 0 0 0 0 0 0 127 0"/>
<feOffset dy="12"/>
<feGaussianBlur stdDeviation="12"/>
<feColorMatrix type="matrix" values="0 0 0 0 0 0 0 0 0 0 0 0 0 0 0 0 0 0 0.08 0"/>
<feBlend mode="normal" in2="effect1_backgroundBlur" result="effect2_dropShadow"/>
<feBlend mode="normal" in="SourceGraphic" in2="effect2_dropShadow" result="shape"/>
</filter>
<filter id="filter2_d" x="308" y="341" width="112" height="112" filterUnits="userSpaceOnUse" color-interpolation-filters="sRGB">
<feFlood flood-opacity="0" result="BackgroundImageFix"/>
<feColorMatrix in="SourceAlpha" type="matrix" values="0 0 0 0 0 0 0 0 0 0 0 0 0 0 0 0 0 0 127 0"/>
<feOffset dy="12"/>
<feGaussianBlur stdDeviation="12"/>
<feColorMatrix type="matrix" values="0 0 0 0 0 0 0 0 0 0 0 0 0 0 0 0 0 0 0.08 0"/>
<feBlend mode="normal" in2="BackgroundImageFix" result="effect1_dropShadow"/>
<feBlend mode="normal" in="SourceGraphic" in2="effect1_dropShadow" result="shape"/>
</filter>
<linearGradient id="paint0_linear" x1="202.75" y1="237.5" x2="202.75" y2="454" gradientUnits="userSpaceOnUse">
<stop stop-color="white"/>
<stop offset="1" stop-color="#FAFBFC"/>
</linearGradient>
</defs>
</svg>
