<svg width="271" height="271" viewBox="0 0 271 271" fill="none" xmlns="http://www.w3.org/2000/svg">
<circle cx="53" cy="66.8264" r="12" fill="#3A61F0"/>
<circle cx="230" cy="175.826" r="9" fill="#181C33"/>
<circle cx="36.5" cy="182.326" r="4.5" fill="#F5A647"/>
<path d="M110.592 79.2641C115.186 67.6248 117.483 61.8052 121.865 57.9707C125.61 54.6939 130.695 52.5355 135.654 52.1175C141.456 51.6284 147.472 54.1153 159.505 59.089L182.98 68.7922C188.733 71.17 191.609 72.3588 194.1 74.2583C196.224 75.8785 198.261 78.082 199.71 80.3268C201.409 82.9586 202.317 85.7572 204.132 91.3543C209.483 107.855 216.848 132.831 216.848 145.319C216.848 157.976 206.658 176.907 199.431 188.744C197.299 192.236 196.232 193.982 194.439 195.855C192.996 197.363 190.843 199.048 189.032 200.085C186.782 201.374 184.525 202.085 180.012 203.506L156.642 210.864C145.494 214.374 139.92 216.129 134.582 215.395C130.034 214.769 125.361 212.62 121.926 209.573C117.895 205.998 115.706 200.87 111.328 190.616C102.889 170.848 93.6641 146.691 93.6641 135.541C93.6641 124.715 102.361 100.117 110.592 79.2641Z" fill="#181C33"/>
<path d="M64.5195 88.9886C79.0058 76.4039 87.8301 63.8769 94.6914 60.2522C95.5849 59.7802 96.4664 59.3222 97.3356 58.8777C105.459 54.7238 109.521 52.6469 116.731 53.4776C121.926 54.076 129.493 58.2719 132.753 62.3612C137.277 68.0373 137.761 73.6849 138.73 84.9802C140.245 102.648 141.645 121.382 141.645 130.271C141.645 144.185 138.213 184.87 136.282 206.661C135.809 212 136.992 198.653 132.572 204.266C131.165 206.053 119.136 212.909 116.882 213.209C109.8 214.151 137.054 227.193 126.153 221.976C123.201 220.563 119.417 218.533 114.586 215.694C92.865 202.926 59.3546 181.946 44.2461 155.211C31.7702 133.135 40.7869 109.606 64.5195 88.9886Z" fill="#F5A647"/>
<g filter="url(#filter0_d)">
<circle cx="130" cy="132.826" r="72" fill="#3A61F0"/>
</g>
<path fill-rule="evenodd" clip-rule="evenodd" d="M101.765 112.826C101.765 125.498 111.623 135.919 124.102 136.879C124.102 133.461 126.853 130.951 130 130.951C133.15 130.951 135.898 133.464 135.898 136.879C148.377 135.919 158.235 125.498 158.235 112.826V110.951H145.416L142.68 102.689C141.915 100.379 139.759 98.8264 137.317 98.8264H122.683C120.241 98.8264 118.085 100.379 117.32 102.689L114.584 110.951H101.765V112.826ZM120.896 103.864C121.151 103.094 121.869 102.576 122.683 102.576H137.317C138.131 102.576 138.849 103.094 139.104 103.864L141.452 110.951H118.548L120.896 103.864ZM98 157.201V154.701H162V157.201C162 160.303 159.467 162.826 156.353 162.826H103.647C100.533 162.826 98 160.303 98 157.201ZM127.867 136.826V140.826C127.867 141.998 128.824 142.951 130 142.951C131.176 142.951 132.133 141.998 132.133 140.826V136.826C132.133 135.655 131.176 134.701 130 134.701C128.824 134.701 127.867 135.655 127.867 136.826ZM162 112.826V150.951H98V112.826C98 127.667 109.583 139.684 124.102 140.638V140.826C124.102 144.066 126.748 146.701 130 146.701C133.252 146.701 135.898 144.066 135.898 140.826V140.638C150.414 139.684 162 127.67 162 112.826Z" fill="white"/>
<defs>
<filter id="filter0_d" x="34" y="48.8264" width="192" height="192" filterUnits="userSpaceOnUse" color-interpolation-filters="sRGB">
<feFlood flood-opacity="0" result="BackgroundImageFix"/>
<feColorMatrix in="SourceAlpha" type="matrix" values="0 0 0 0 0 0 0 0 0 0 0 0 0 0 0 0 0 0 127 0"/>
<feOffset dy="12"/>
<feGaussianBlur stdDeviation="12"/>
<feColorMatrix type="matrix" values="0 0 0 0 0 0 0 0 0 0 0 0 0 0 0 0 0 0 0.08 0"/>
<feBlend mode="normal" in2="BackgroundImageFix" result="effect1_dropShadow"/>
<feBlend mode="normal" in="SourceGraphic" in2="effect1_dropShadow" result="shape"/>
</filter>
</defs>
</svg>
