<svg width="271" height="271" viewBox="0 0 271 271" fill="none" xmlns="http://www.w3.org/2000/svg">
<circle cx="248" cy="134" r="12" fill="#3A61F0"/>
<circle cx="20" cy="104" r="9" fill="#181C33"/>
<circle cx="65.5" cy="221.5" r="4.5" fill="#F5A647"/>
<path d="M59.5021 84.8634C61.0122 68.2318 80.8835 60.5269 96.9366 65.13V65.13C101.312 66.3847 111.881 65.6782 124.49 64.0832C148.282 61.0736 160.178 59.5688 166.92 63.1725C173.045 66.4465 177.044 71.5077 178.814 78.2237C180.761 85.6158 176.773 96.2422 168.795 117.495L142.24 188.24C135.525 206.127 132.168 215.071 126.849 219.228C121.775 223.192 116.868 224.698 110.444 224.261C103.709 223.804 94.814 217.504 77.0248 204.904C71.5993 201.061 66.7437 198.196 63.2365 197.19C56.4659 195.249 50.1036 187.477 45.0594 179.273C41.7162 173.834 40.0445 171.115 39.146 167.528C38.2465 163.937 38.144 161.472 38.7422 157.818C39.3398 154.169 42.3119 148.29 48.2561 136.532C50.4099 132.272 52.4163 127.445 53.9352 122.148C56.397 113.563 58.2132 99.0583 59.5021 84.8634Z" fill="#F5A647"/>
<path d="M112.506 95.0747C117.533 88.9433 120.047 85.8776 123.233 83.8309C126.215 81.9149 129.027 80.849 132.53 80.3062C136.272 79.7263 141.156 80.5108 150.925 82.0796C155.793 82.8614 160.66 83.4173 164.655 83.4173C166.431 83.4173 169.112 83.1752 172.428 82.7548C185.095 81.1494 191.428 80.3468 193.59 80.4632C209.761 81.3343 213.014 84.2012 215.911 100.134C216.299 102.264 216.299 113.418 216.299 135.726V135.726C216.299 148.608 217.821 161.75 219.359 171.743C220.423 178.654 220.955 182.11 220.431 185.682C220.033 188.387 218.637 192.275 217.222 194.614C215.354 197.703 213.84 199.054 210.811 201.755C205.58 206.42 199.286 210.565 193.435 210.565C187.331 210.565 174.223 215.232 161.769 220.309C150.748 224.802 145.238 227.049 140.311 226.961C135.893 226.882 131.786 225.666 128.036 223.327C123.856 220.719 120.785 216.307 114.644 207.483C99.4547 185.661 80.3594 156.262 80.3594 146.385C80.3594 136.211 98.6329 111.994 112.506 95.0747Z" fill="#181C33"/>
<g filter="url(#filter0_d)">
<circle cx="138" cy="145" r="72" fill="#3A61F0"/>
</g>
<path fill-rule="evenodd" clip-rule="evenodd" d="M170 134.186V129.659C170 126.538 167.477 124 164.375 124H111.625C108.523 124 106 126.538 106 129.659V134.186H170ZM149.875 147.892H158.125V152.168H149.875V147.892ZM106 137.958V160.341C106 163.462 108.523 166 111.625 166H164.375C167.477 166 170 163.462 170 160.341V137.958H106ZM134 155.94H118C116.965 155.94 116.125 155.096 116.125 154.054C116.125 153.012 116.965 152.168 118 152.168H134C135.035 152.168 135.875 153.012 135.875 154.054C135.875 155.096 135.035 155.94 134 155.94ZM118 147.892H134C135.035 147.892 135.875 147.048 135.875 146.006C135.875 144.964 135.035 144.12 134 144.12H118C116.965 144.12 116.125 144.964 116.125 146.006C116.125 147.048 116.965 147.892 118 147.892ZM161.875 154.054C161.875 155.096 161.035 155.94 160 155.94H148C146.965 155.94 146.125 155.096 146.125 154.054V146.006C146.125 144.964 146.965 144.12 148 144.12H160C161.035 144.12 161.875 144.964 161.875 146.006V154.054Z" fill="white"/>
<defs>
<filter id="filter0_d" x="42" y="61" width="192" height="192" filterUnits="userSpaceOnUse" color-interpolation-filters="sRGB">
<feFlood flood-opacity="0" result="BackgroundImageFix"/>
<feColorMatrix in="SourceAlpha" type="matrix" values="0 0 0 0 0 0 0 0 0 0 0 0 0 0 0 0 0 0 127 0"/>
<feOffset dy="12"/>
<feGaussianBlur stdDeviation="12"/>
<feColorMatrix type="matrix" values="0 0 0 0 0 0 0 0 0 0 0 0 0 0 0 0 0 0 0.08 0"/>
<feBlend mode="normal" in2="BackgroundImageFix" result="effect1_dropShadow"/>
<feBlend mode="normal" in="SourceGraphic" in2="effect1_dropShadow" result="shape"/>
</filter>
</defs>
</svg>
