<svg width="271" height="271" viewBox="0 0 271 271" fill="none" xmlns="http://www.w3.org/2000/svg">
<circle cx="248" cy="132.52" r="12" fill="#3A61F0"/>
<circle cx="20" cy="118.52" r="9" fill="#181C33"/>
<circle cx="30.5" cy="160.02" r="4.5" fill="#F5A647"/>
<path d="M59.4868 149.8C55.8725 118.68 54.0654 103.12 55.7294 96.5343C57.5986 89.1364 58.9734 86.5564 64.0711 80.8788C68.6091 75.8248 74.1504 72.9678 85.233 67.2538C89.7222 64.9391 93.4536 63.3636 95.7708 63.0389V63.0389C111.772 60.797 119.773 59.6761 123.589 59.9314C137.782 60.8808 145.417 65.5284 152.779 77.6993C154.758 80.9717 156.34 85.4729 159.504 94.4753L171.729 129.255C182.337 159.437 187.641 174.527 184.525 185.734C181.782 195.599 175.25 203.72 166.203 208.515C155.925 213.962 139.839 211.992 107.665 208.051C98.5861 206.939 91.6283 206.16 88.6015 205.976C86.0967 205.823 82.538 205.469 78.3739 204.991C59.8303 202.862 55.7735 176.529 59.3389 158.207V158.207C59.8288 155.689 59.8405 152.846 59.4868 149.8Z" fill="#F5A647"/>
<path d="M92.6536 109.119C89.92 89.9202 88.5532 80.321 91.5594 73.3465C94.2196 67.1748 98.9329 62.339 105.034 59.5214C111.93 56.3373 121.697 57.4733 141.233 59.7455C157.9 61.684 173.253 63.2598 179.119 63.2598V63.2598C189.224 63.2598 194.277 63.2598 197.959 64.3271C208.936 67.5086 213.194 71.7671 216.376 82.7433C217.443 86.4257 217.443 97.4387 217.443 119.465V119.465C217.443 128.587 218.348 143.632 223.658 162.71V162.71C224.958 167.381 225.608 169.716 225.848 171.205C228.063 184.945 218.696 198.79 205.119 201.845C203.648 202.176 208.718 201.617 206.69 201.841C203.024 202.244 199.162 202.485 195.162 202.485C181.801 202.485 156.974 199.805 136.69 197.3C125.454 195.913 119.835 195.219 115.17 192.58C111.117 190.288 107.581 186.817 105.214 182.808C102.489 178.192 101.673 172.46 100.04 160.994L92.6536 109.119Z" fill="#181C33"/>
<g filter="url(#filter0_d)">
<circle cx="138" cy="135.52" r="72" fill="#3A61F0"/>
</g>
<path fill-rule="evenodd" clip-rule="evenodd" d="M139.399 101.789L167.641 113.295C169.074 113.87 170 115.235 170 116.775V121.632C170 123.701 168.311 125.383 166.235 125.383H109.765C107.689 125.383 106 123.701 106 121.632V116.775C106 115.235 106.926 113.87 108.359 113.295L136.588 101.794C137.509 101.425 138.504 101.432 139.398 101.789L139.399 101.789ZM138 117.381C139.04 117.381 139.882 116.541 139.882 115.505V111.504C139.882 110.468 139.04 109.629 138 109.629C136.96 109.629 136.118 110.468 136.118 111.504V115.505C136.118 116.541 136.96 117.381 138 117.381ZM143.898 129.134V149.89H132.102V129.134H143.898ZM152.18 129.134H163.976V149.89H152.18V129.134ZM166.235 153.641C168.311 153.641 170 155.324 170 157.392V161.768C170 163.837 168.311 165.52 166.235 165.52H109.765C107.689 165.52 106 163.837 106 161.768V157.392C106 155.324 107.689 153.641 109.765 153.641H166.235ZM123.82 129.134H112.024V149.89H123.82V129.134Z" fill="white"/>
<defs>
<filter id="filter0_d" x="42" y="51.5195" width="192" height="192" filterUnits="userSpaceOnUse" color-interpolation-filters="sRGB">
<feFlood flood-opacity="0" result="BackgroundImageFix"/>
<feColorMatrix in="SourceAlpha" type="matrix" values="0 0 0 0 0 0 0 0 0 0 0 0 0 0 0 0 0 0 127 0"/>
<feOffset dy="12"/>
<feGaussianBlur stdDeviation="12"/>
<feColorMatrix type="matrix" values="0 0 0 0 0 0 0 0 0 0 0 0 0 0 0 0 0 0 0.08 0"/>
<feBlend mode="normal" in2="BackgroundImageFix" result="effect1_dropShadow"/>
<feBlend mode="normal" in="SourceGraphic" in2="effect1_dropShadow" result="shape"/>
</filter>
</defs>
</svg>
