<svg width="207" height="192" viewBox="0 0 207 192" fill="none" xmlns="http://www.w3.org/2000/svg">
<circle cx="21" cy="18" r="12" fill="#3A61F0"/>
<circle cx="198" cy="127" r="9" fill="#181C33"/>
<circle cx="4.5" cy="133.5" r="4.5" fill="#F5A647"/>
<path d="M78.5921 30.4377C83.1861 18.7984 85.4831 12.9787 89.8654 9.14432C93.6104 5.86746 98.6949 3.70904 103.654 3.29107C109.456 2.80199 115.472 5.28887 127.505 10.2626L150.98 19.9658C156.733 22.3435 159.609 23.5324 162.1 25.4319C164.224 27.0521 166.261 29.2556 167.71 31.5004C169.409 34.1322 170.317 36.9308 172.132 42.5279C177.483 59.0286 184.848 84.0049 184.848 96.4922C184.848 109.149 174.658 128.081 167.431 139.918C165.299 143.409 164.232 145.155 162.439 147.029C160.996 148.537 158.843 150.221 157.032 151.259C154.782 152.548 152.525 153.259 148.012 154.68L124.642 162.038C113.494 165.547 107.92 167.302 102.582 166.568C98.0338 165.943 93.3607 163.793 89.9261 160.747C85.8951 157.171 83.7061 152.044 79.3281 141.789C70.8887 122.022 61.6641 97.8649 61.6641 86.7149C61.6641 75.8882 70.3615 51.2909 78.5921 30.4377Z" fill="#181C33"/>
<path d="M32.5195 40.1621C47.0058 27.5774 55.8301 15.0504 62.6914 11.4258C63.5849 10.9537 64.4664 10.4957 65.3356 10.0512C73.4589 5.89736 77.5206 3.82042 84.7313 4.65109C89.9262 5.24953 97.4935 9.44546 100.753 13.5347C105.277 19.2108 105.761 24.8585 106.73 36.1537C108.245 53.8212 109.645 72.5558 109.645 81.4443C109.645 95.359 106.213 136.044 104.282 157.835C103.809 163.173 104.992 149.827 100.572 155.439C99.1654 157.226 87.1361 164.082 84.8819 164.382C77.8005 165.325 105.054 178.366 94.1528 173.15C91.2006 171.737 87.4168 169.707 82.5859 166.867C60.865 154.1 27.3546 133.12 12.2461 106.385C-0.229809 84.3082 8.78688 60.7794 32.5195 40.1621Z" fill="#F5A647"/>
<g filter="url(#filter0_d)">
<circle cx="98" cy="84" r="72" fill="#3A61F0"/>
</g>
<path fill-rule="evenodd" clip-rule="evenodd" d="M69.7647 64C69.7647 76.6716 79.6235 87.0926 92.102 88.0526C92.102 84.6349 94.8533 82.125 98 82.125C101.15 82.125 103.898 84.6379 103.898 88.0526C116.377 87.0926 126.235 76.6716 126.235 64V62.125H113.416L110.68 53.8629C109.915 51.5524 107.759 50 105.317 50H90.683C88.2405 50 86.0853 51.5524 85.3203 53.8628L82.5839 62.125H69.7647V64ZM88.8956 55.0375C89.1506 54.2674 89.869 53.75 90.683 53.75H105.317C106.131 53.75 106.849 54.2674 107.104 55.0376L109.452 62.125H86.5483L88.8956 55.0375ZM66 108.375V105.875H130V108.375C130 111.477 127.467 114 124.353 114H71.6471C68.5333 114 66 111.477 66 108.375ZM95.8667 88V92C95.8667 93.1717 96.8237 94.125 98 94.125C99.1763 94.125 100.133 93.1717 100.133 92V88C100.133 86.8283 99.1763 85.875 98 85.875C96.8237 85.875 95.8667 86.8283 95.8667 88ZM130 64V102.125H66V64C66 78.8409 77.5826 90.8574 92.102 91.8116V92C92.102 95.2395 94.7478 97.875 98 97.875C101.252 97.875 103.898 95.2395 103.898 92V91.8116C118.414 90.8576 130 78.844 130 64Z" fill="white"/>
<defs>
<filter id="filter0_d" x="2" y="0" width="192" height="192" filterUnits="userSpaceOnUse" color-interpolation-filters="sRGB">
<feFlood flood-opacity="0" result="BackgroundImageFix"/>
<feColorMatrix in="SourceAlpha" type="matrix" values="0 0 0 0 0 0 0 0 0 0 0 0 0 0 0 0 0 0 127 0"/>
<feOffset dy="12"/>
<feGaussianBlur stdDeviation="12"/>
<feColorMatrix type="matrix" values="0 0 0 0 0 0 0 0 0 0 0 0 0 0 0 0 0 0 0.08 0"/>
<feBlend mode="normal" in2="BackgroundImageFix" result="effect1_dropShadow"/>
<feBlend mode="normal" in="SourceGraphic" in2="effect1_dropShadow" result="shape"/>
</filter>
</defs>
</svg>
