<svg width="120" height="24" viewBox="0 0 120 24" fill="none" xmlns="http://www.w3.org/2000/svg">
<path d="M12.4653 18.2446C12.174 18.0915 11.826 18.0915 11.5347 18.2446L6.74005 20.7653C6.00642 21.151 5.14899 20.528 5.2891 19.7111L6.20479 14.3723C6.26043 14.0479 6.15288 13.7169 5.91719 13.4871L2.03827 9.70612C1.44476 9.12759 1.77226 8.11961 2.59248 8.00043L7.95302 7.2215C8.27873 7.17417 8.5603 6.9696 8.70596 6.67446L11.1033 1.81699C11.4701 1.07374 12.5299 1.07374 12.8967 1.81699L15.294 6.67446C15.4397 6.9696 15.7213 7.17417 16.047 7.2215L21.4075 8.00043C22.2277 8.11961 22.5552 9.12759 21.9617 9.70612L18.0828 13.4871C17.8471 13.7169 17.7396 14.0479 17.7952 14.3723L18.7109 19.7111C18.851 20.528 17.9936 21.151 17.26 20.7653L12.4653 18.2446Z" fill="#F5A647"/>
<path d="M36.4653 18.2446C36.174 18.0915 35.826 18.0915 35.5347 18.2446L30.7401 20.7653C30.0064 21.151 29.149 20.528 29.2891 19.7111L30.2048 14.3723C30.2604 14.0479 30.1529 13.7169 29.9172 13.4871L26.0383 9.70612C25.4448 9.12759 25.7723 8.11961 26.5925 8.00043L31.953 7.2215C32.2787 7.17417 32.5603 6.9696 32.706 6.67446L35.1033 1.81699C35.4701 1.07374 36.5299 1.07374 36.8967 1.81699L39.294 6.67446C39.4397 6.9696 39.7213 7.17417 40.047 7.2215L45.4075 8.00043C46.2277 8.11961 46.5552 9.12759 45.9617 9.70612L42.0828 13.4871C41.8471 13.7169 41.7396 14.0479 41.7952 14.3723L42.7109 19.7111C42.851 20.528 41.9936 21.151 41.26 20.7653L36.4653 18.2446Z" fill="#F5A647"/>
<path d="M60.4653 18.2446C60.174 18.0915 59.826 18.0915 59.5347 18.2446L54.7401 20.7653C54.0064 21.151 53.149 20.528 53.2891 19.7111L54.2048 14.3723C54.2604 14.0479 54.1529 13.7169 53.9172 13.4871L50.0383 9.70612C49.4448 9.12759 49.7723 8.11961 50.5925 8.00043L55.953 7.2215C56.2787 7.17417 56.5603 6.9696 56.706 6.67446L59.1033 1.81699C59.4701 1.07374 60.5299 1.07374 60.8967 1.81699L63.294 6.67446C63.4397 6.9696 63.7213 7.17417 64.047 7.2215L69.4075 8.00043C70.2277 8.11961 70.5552 9.12759 69.9617 9.70612L66.0828 13.4871C65.8471 13.7169 65.7396 14.0479 65.7952 14.3723L66.7109 19.7111C66.851 20.528 65.9936 21.151 65.26 20.7653L60.4653 18.2446Z" fill="#F5A647"/>
<path d="M84.4653 18.2446C84.174 18.0915 83.826 18.0915 83.5347 18.2446L78.7401 20.7653C78.0064 21.151 77.149 20.528 77.2891 19.7111L78.2048 14.3723C78.2604 14.0479 78.1529 13.7169 77.9172 13.4871L74.0383 9.70612C73.4448 9.12759 73.7723 8.11961 74.5925 8.00043L79.953 7.2215C80.2787 7.17417 80.5603 6.9696 80.706 6.67446L83.1033 1.81699C83.4701 1.07374 84.5299 1.07374 84.8967 1.81699L87.294 6.67446C87.4397 6.9696 87.7213 7.17417 88.047 7.2215L93.4075 8.00043C94.2277 8.11961 94.5552 9.12759 93.9617 9.70612L90.0828 13.4871C89.8471 13.7169 89.7396 14.0479 89.7952 14.3723L90.7109 19.7111C90.851 20.528 89.9936 21.151 89.26 20.7653L84.4653 18.2446Z" fill="#F5A647"/>
<path d="M108.465 18.2446C108.174 18.0915 107.826 18.0915 107.535 18.2446L102.74 20.7653C102.006 21.151 101.149 20.528 101.289 19.7111L102.205 14.3723C102.26 14.0479 102.153 13.7169 101.917 13.4871L98.0383 9.70612C97.4448 9.12759 97.7723 8.11961 98.5925 8.00043L103.953 7.2215C104.279 7.17417 104.56 6.9696 104.706 6.67446L107.103 1.81699C107.47 1.07374 108.53 1.07374 108.897 1.81699L111.294 6.67446C111.44 6.9696 111.721 7.17417 112.047 7.2215L117.408 8.00043C118.228 8.11961 118.555 9.12759 117.962 9.70612L114.083 13.4871C113.847 13.7169 113.74 14.0479 113.795 14.3723L114.711 19.7111C114.851 20.528 113.994 21.151 113.26 20.7653L108.465 18.2446Z" fill="#F5A647"/>
</svg>
